<svg xmlns="http://www.w3.org/2000/svg" viewBox="0 0 1240 800" width="1240" height="800">
<rect width="1240" height="800" fill="#ffffff"/>
<text x="620.0" y="40" font-family="Helvetica, Arial, sans-serif" font-size="22" text-anchor="middle" font-weight="bold" fill="#222">ESP32 LED Matrix Clock — wiring</text>
<text x="620.0" y="62" font-family="Helvetica, Arial, sans-serif" font-size="13" text-anchor="middle" font-weight="normal" fill="#666">ESP32 DevKit V1 (30-pin) · pin names as printed on the board</text>
<rect x="480" y="100" width="260" height="545" rx="10" fill="#1f3a5f" stroke="#0f1f33" stroke-width="2"/>
<rect x="550" y="110" width="120" height="46" rx="3" fill="#c0c7d0" stroke="#8a929c" stroke-width="1"/>
<text x="610.0" y="138" font-family="Helvetica, Arial, sans-serif" font-size="12" text-anchor="middle" font-weight="normal" fill="#333">ESP32-WROOM</text>
<text x="610.0" y="430" font-family="Helvetica, Arial, sans-serif" font-size="20" text-anchor="middle" font-weight="bold" fill="#fff">ESP32</text>
<text x="610.0" y="452" font-family="Helvetica, Arial, sans-serif" font-size="13" text-anchor="middle" font-weight="normal" fill="#cfd8e3">DevKit V1</text>
<rect x="582.0" y="639" width="56" height="22" rx="5" fill="#9aa3ad" stroke="#555" stroke-width="1.5"/>
<text x="610.0" y="685" font-family="Helvetica, Arial, sans-serif" font-size="12" text-anchor="middle" font-weight="normal" fill="#555">USB-C · power + upload</text>
<circle cx="480" cy="160" r="4.5" fill="#bbb" stroke="#555" stroke-width="1"/>
<text x="492" y="164.5" font-family="Helvetica, Arial, sans-serif" font-size="12" text-anchor="start" font-weight="normal" fill="#7f93ab">EN</text>
<circle cx="480" cy="192" r="4.5" fill="#bbb" stroke="#555" stroke-width="1"/>
<text x="492" y="196.5" font-family="Helvetica, Arial, sans-serif" font-size="12" text-anchor="start" font-weight="normal" fill="#7f93ab">VP</text>
<circle cx="480" cy="224" r="4.5" fill="#bbb" stroke="#555" stroke-width="1"/>
<text x="492" y="228.5" font-family="Helvetica, Arial, sans-serif" font-size="12" text-anchor="start" font-weight="normal" fill="#7f93ab">VN</text>
<circle cx="480" cy="256" r="4.5" fill="#bbb" stroke="#555" stroke-width="1"/>
<text x="492" y="260.5" font-family="Helvetica, Arial, sans-serif" font-size="12" text-anchor="start" font-weight="normal" fill="#7f93ab">D34</text>
<circle cx="480" cy="288" r="4.5" fill="#bbb" stroke="#555" stroke-width="1"/>
<text x="492" y="292.5" font-family="Helvetica, Arial, sans-serif" font-size="12" text-anchor="start" font-weight="normal" fill="#7f93ab">D35</text>
<circle cx="480" cy="320" r="4.5" fill="#c9a227" stroke="#555" stroke-width="1"/>
<text x="492" y="324.5" font-family="Helvetica, Arial, sans-serif" font-size="12" text-anchor="start" font-weight="bold" fill="#fff">D32</text>
<circle cx="480" cy="352" r="4.5" fill="#c9a227" stroke="#555" stroke-width="1"/>
<text x="492" y="356.5" font-family="Helvetica, Arial, sans-serif" font-size="12" text-anchor="start" font-weight="bold" fill="#fff">D33</text>
<circle cx="480" cy="384" r="4.5" fill="#c9a227" stroke="#555" stroke-width="1"/>
<text x="492" y="388.5" font-family="Helvetica, Arial, sans-serif" font-size="12" text-anchor="start" font-weight="bold" fill="#fff">D25</text>
<circle cx="480" cy="416" r="4.5" fill="#c9a227" stroke="#555" stroke-width="1"/>
<text x="492" y="420.5" font-family="Helvetica, Arial, sans-serif" font-size="12" text-anchor="start" font-weight="bold" fill="#fff">D26</text>
<circle cx="480" cy="448" r="4.5" fill="#c9a227" stroke="#555" stroke-width="1"/>
<text x="492" y="452.5" font-family="Helvetica, Arial, sans-serif" font-size="12" text-anchor="start" font-weight="bold" fill="#fff">D27</text>
<circle cx="480" cy="480" r="4.5" fill="#c9a227" stroke="#555" stroke-width="1"/>
<text x="492" y="484.5" font-family="Helvetica, Arial, sans-serif" font-size="12" text-anchor="start" font-weight="bold" fill="#fff">D14</text>
<circle cx="480" cy="512" r="4.5" fill="#bbb" stroke="#555" stroke-width="1"/>
<text x="492" y="516.5" font-family="Helvetica, Arial, sans-serif" font-size="12" text-anchor="start" font-weight="normal" fill="#7f93ab">D12</text>
<circle cx="480" cy="544" r="4.5" fill="#bbb" stroke="#555" stroke-width="1"/>
<text x="492" y="548.5" font-family="Helvetica, Arial, sans-serif" font-size="12" text-anchor="start" font-weight="normal" fill="#7f93ab">D13</text>
<circle cx="480" cy="576" r="4.5" fill="#c9a227" stroke="#555" stroke-width="1"/>
<text x="492" y="580.5" font-family="Helvetica, Arial, sans-serif" font-size="12" text-anchor="start" font-weight="bold" fill="#fff">GND</text>
<circle cx="480" cy="608" r="4.5" fill="#c9a227" stroke="#555" stroke-width="1"/>
<text x="492" y="612.5" font-family="Helvetica, Arial, sans-serif" font-size="12" text-anchor="start" font-weight="bold" fill="#fff">VIN</text>
<circle cx="740" cy="160" r="4.5" fill="#c9a227" stroke="#555" stroke-width="1"/>
<text x="728" y="164.5" font-family="Helvetica, Arial, sans-serif" font-size="12" text-anchor="end" font-weight="bold" fill="#fff">D23</text>
<circle cx="740" cy="192" r="4.5" fill="#bbb" stroke="#555" stroke-width="1"/>
<text x="728" y="196.5" font-family="Helvetica, Arial, sans-serif" font-size="12" text-anchor="end" font-weight="normal" fill="#7f93ab">D22</text>
<circle cx="740" cy="224" r="4.5" fill="#bbb" stroke="#555" stroke-width="1"/>
<text x="728" y="228.5" font-family="Helvetica, Arial, sans-serif" font-size="12" text-anchor="end" font-weight="normal" fill="#7f93ab">TX0</text>
<circle cx="740" cy="256" r="4.5" fill="#bbb" stroke="#555" stroke-width="1"/>
<text x="728" y="260.5" font-family="Helvetica, Arial, sans-serif" font-size="12" text-anchor="end" font-weight="normal" fill="#7f93ab">RX0</text>
<circle cx="740" cy="288" r="4.5" fill="#bbb" stroke="#555" stroke-width="1"/>
<text x="728" y="292.5" font-family="Helvetica, Arial, sans-serif" font-size="12" text-anchor="end" font-weight="normal" fill="#7f93ab">D21</text>
<circle cx="740" cy="320" r="4.5" fill="#c9a227" stroke="#555" stroke-width="1"/>
<text x="728" y="324.5" font-family="Helvetica, Arial, sans-serif" font-size="12" text-anchor="end" font-weight="bold" fill="#fff">D19</text>
<circle cx="740" cy="352" r="4.5" fill="#c9a227" stroke="#555" stroke-width="1"/>
<text x="728" y="356.5" font-family="Helvetica, Arial, sans-serif" font-size="12" text-anchor="end" font-weight="bold" fill="#fff">D18</text>
<circle cx="740" cy="384" r="4.5" fill="#c9a227" stroke="#555" stroke-width="1"/>
<text x="728" y="388.5" font-family="Helvetica, Arial, sans-serif" font-size="12" text-anchor="end" font-weight="bold" fill="#fff">D5</text>
<circle cx="740" cy="416" r="4.5" fill="#bbb" stroke="#555" stroke-width="1"/>
<text x="728" y="420.5" font-family="Helvetica, Arial, sans-serif" font-size="12" text-anchor="end" font-weight="normal" fill="#7f93ab">TX2</text>
<circle cx="740" cy="448" r="4.5" fill="#bbb" stroke="#555" stroke-width="1"/>
<text x="728" y="452.5" font-family="Helvetica, Arial, sans-serif" font-size="12" text-anchor="end" font-weight="normal" fill="#7f93ab">RX2</text>
<circle cx="740" cy="480" r="4.5" fill="#bbb" stroke="#555" stroke-width="1"/>
<text x="728" y="484.5" font-family="Helvetica, Arial, sans-serif" font-size="12" text-anchor="end" font-weight="normal" fill="#7f93ab">D4</text>
<circle cx="740" cy="512" r="4.5" fill="#bbb" stroke="#555" stroke-width="1"/>
<text x="728" y="516.5" font-family="Helvetica, Arial, sans-serif" font-size="12" text-anchor="end" font-weight="normal" fill="#7f93ab">D2</text>
<circle cx="740" cy="544" r="4.5" fill="#bbb" stroke="#555" stroke-width="1"/>
<text x="728" y="548.5" font-family="Helvetica, Arial, sans-serif" font-size="12" text-anchor="end" font-weight="normal" fill="#7f93ab">D15</text>
<circle cx="740" cy="576" r="4.5" fill="#c9a227" stroke="#555" stroke-width="1"/>
<text x="728" y="580.5" font-family="Helvetica, Arial, sans-serif" font-size="12" text-anchor="end" font-weight="bold" fill="#fff">GND</text>
<circle cx="740" cy="608" r="4.5" fill="#c9a227" stroke="#555" stroke-width="1"/>
<text x="728" y="612.5" font-family="Helvetica, Arial, sans-serif" font-size="12" text-anchor="end" font-weight="bold" fill="#fff">3V3</text>
<rect x="50" y="110" width="240" height="80" rx="6" fill="#e8f6ec" stroke="#333" stroke-width="1.5"/>
<text x="62" y="132" font-family="Helvetica, Arial, sans-serif" font-size="14" text-anchor="start" font-weight="bold" fill="#222">Touch T1</text>
<text x="62" y="149" font-family="Helvetica, Arial, sans-serif" font-size="11.5" text-anchor="start" font-weight="normal" fill="#555">TTP223 · previous / −</text>
<circle cx="290" cy="130" r="4.5" fill="#c9a227" stroke="#555" stroke-width="1"/>
<text x="280" y="134" font-family="Helvetica, Arial, sans-serif" font-size="11.5" text-anchor="end" font-weight="bold" fill="#222">VCC</text>
<circle cx="290" cy="150" r="4.5" fill="#c9a227" stroke="#555" stroke-width="1"/>
<text x="280" y="154" font-family="Helvetica, Arial, sans-serif" font-size="11.5" text-anchor="end" font-weight="bold" fill="#222">OUT</text>
<circle cx="290" cy="170" r="4.5" fill="#c9a227" stroke="#555" stroke-width="1"/>
<text x="280" y="174" font-family="Helvetica, Arial, sans-serif" font-size="11.5" text-anchor="end" font-weight="bold" fill="#222">GND</text>
<rect x="50" y="210" width="240" height="80" rx="6" fill="#e8f6ec" stroke="#333" stroke-width="1.5"/>
<text x="62" y="232" font-family="Helvetica, Arial, sans-serif" font-size="14" text-anchor="start" font-weight="bold" fill="#222">Touch T2</text>
<text x="62" y="249" font-family="Helvetica, Arial, sans-serif" font-size="11.5" text-anchor="start" font-weight="normal" fill="#555">TTP223 · next / +</text>
<circle cx="290" cy="230" r="4.5" fill="#c9a227" stroke="#555" stroke-width="1"/>
<text x="280" y="234" font-family="Helvetica, Arial, sans-serif" font-size="11.5" text-anchor="end" font-weight="bold" fill="#222">VCC</text>
<circle cx="290" cy="250" r="4.5" fill="#c9a227" stroke="#555" stroke-width="1"/>
<text x="280" y="254" font-family="Helvetica, Arial, sans-serif" font-size="11.5" text-anchor="end" font-weight="bold" fill="#222">OUT</text>
<circle cx="290" cy="270" r="4.5" fill="#c9a227" stroke="#555" stroke-width="1"/>
<text x="280" y="274" font-family="Helvetica, Arial, sans-serif" font-size="11.5" text-anchor="end" font-weight="bold" fill="#222">GND</text>
<rect x="50" y="310" width="240" height="80" rx="6" fill="#fff4db" stroke="#333" stroke-width="1.5"/>
<text x="62" y="332" font-family="Helvetica, Arial, sans-serif" font-size="14" text-anchor="start" font-weight="bold" fill="#222">Push button</text>
<text x="62" y="349" font-family="Helvetica, Arial, sans-serif" font-size="11.5" text-anchor="start" font-weight="normal" fill="#555">Enter / select</text>
<circle cx="290" cy="330" r="4.5" fill="#c9a227" stroke="#555" stroke-width="1"/>
<text x="280" y="334" font-family="Helvetica, Arial, sans-serif" font-size="11.5" text-anchor="end" font-weight="bold" fill="#222">VCC</text>
<circle cx="290" cy="350" r="4.5" fill="#c9a227" stroke="#555" stroke-width="1"/>
<text x="280" y="354" font-family="Helvetica, Arial, sans-serif" font-size="11.5" text-anchor="end" font-weight="bold" fill="#222">OUT</text>
<circle cx="290" cy="370" r="4.5" fill="#c9a227" stroke="#555" stroke-width="1"/>
<text x="280" y="374" font-family="Helvetica, Arial, sans-serif" font-size="11.5" text-anchor="end" font-weight="bold" fill="#222">GND</text>
<rect x="50" y="420" width="240" height="180" rx="6" fill="#eef0ff" stroke="#333" stroke-width="1.5"/>
<text x="62" y="442" font-family="Helvetica, Arial, sans-serif" font-size="14" text-anchor="start" font-weight="bold" fill="#222">RTC DS1302</text>
<text x="62" y="459" font-family="Helvetica, Arial, sans-serif" font-size="11.5" text-anchor="start" font-weight="normal" fill="#555">3-wire · not I2C</text>
<circle cx="290" cy="450" r="4.5" fill="#c9a227" stroke="#555" stroke-width="1"/>
<text x="280" y="454" font-family="Helvetica, Arial, sans-serif" font-size="11.5" text-anchor="end" font-weight="bold" fill="#222">RST</text>
<circle cx="290" cy="475" r="4.5" fill="#c9a227" stroke="#555" stroke-width="1"/>
<text x="280" y="479" font-family="Helvetica, Arial, sans-serif" font-size="11.5" text-anchor="end" font-weight="bold" fill="#222">DAT</text>
<circle cx="290" cy="500" r="4.5" fill="#c9a227" stroke="#555" stroke-width="1"/>
<text x="280" y="504" font-family="Helvetica, Arial, sans-serif" font-size="11.5" text-anchor="end" font-weight="bold" fill="#222">CLK</text>
<circle cx="290" cy="525" r="4.5" fill="#c9a227" stroke="#555" stroke-width="1"/>
<text x="280" y="529" font-family="Helvetica, Arial, sans-serif" font-size="11.5" text-anchor="end" font-weight="bold" fill="#222">GND</text>
<circle cx="290" cy="550" r="4.5" fill="#c9a227" stroke="#555" stroke-width="1"/>
<text x="280" y="554" font-family="Helvetica, Arial, sans-serif" font-size="11.5" text-anchor="end" font-weight="bold" fill="#222">VCC</text>
<circle cx="120" cy="530" r="34" fill="#d9dce3" stroke="#888" stroke-width="1.5"/>
<text x="120" y="527" font-family="Helvetica, Arial, sans-serif" font-size="11.5" text-anchor="middle" font-weight="bold" fill="#444">CR2032</text>
<text x="120" y="542" font-family="Helvetica, Arial, sans-serif" font-size="10.5" text-anchor="middle" font-weight="normal" fill="#666">backup</text>
<line x1="290" y1="130" x2="298" y2="130" stroke="#e67700" stroke-width="3"/>
<rect x="298" y="121" width="30.799999999999997" height="18" rx="4" fill="#e67700"/>
<text x="313.4" y="134.5" font-family="Helvetica, Arial, sans-serif" font-size="11.5" text-anchor="middle" font-weight="bold" fill="#fff">3V3</text>
<line x1="290" y1="230" x2="298" y2="230" stroke="#e67700" stroke-width="3"/>
<rect x="298" y="221" width="30.799999999999997" height="18" rx="4" fill="#e67700"/>
<text x="313.4" y="234.5" font-family="Helvetica, Arial, sans-serif" font-size="11.5" text-anchor="middle" font-weight="bold" fill="#fff">3V3</text>
<line x1="290" y1="330" x2="298" y2="330" stroke="#e67700" stroke-width="3"/>
<rect x="298" y="321" width="30.799999999999997" height="18" rx="4" fill="#e67700"/>
<text x="313.4" y="334.5" font-family="Helvetica, Arial, sans-serif" font-size="11.5" text-anchor="middle" font-weight="bold" fill="#fff">3V3</text>
<line x1="290" y1="550" x2="298" y2="550" stroke="#e67700" stroke-width="3"/>
<rect x="298" y="541" width="30.799999999999997" height="18" rx="4" fill="#e67700"/>
<text x="313.4" y="554.5" font-family="Helvetica, Arial, sans-serif" font-size="11.5" text-anchor="middle" font-weight="bold" fill="#fff">3V3</text>
<line x1="290" y1="170" x2="298" y2="170" stroke="#222222" stroke-width="3"/>
<rect x="298" y="161" width="30.799999999999997" height="18" rx="4" fill="#222222"/>
<text x="313.4" y="174.5" font-family="Helvetica, Arial, sans-serif" font-size="11.5" text-anchor="middle" font-weight="bold" fill="#fff">GND</text>
<line x1="290" y1="270" x2="298" y2="270" stroke="#222222" stroke-width="3"/>
<rect x="298" y="261" width="30.799999999999997" height="18" rx="4" fill="#222222"/>
<text x="313.4" y="274.5" font-family="Helvetica, Arial, sans-serif" font-size="11.5" text-anchor="middle" font-weight="bold" fill="#fff">GND</text>
<line x1="290" y1="370" x2="298" y2="370" stroke="#222222" stroke-width="3"/>
<rect x="298" y="361" width="30.799999999999997" height="18" rx="4" fill="#222222"/>
<text x="313.4" y="374.5" font-family="Helvetica, Arial, sans-serif" font-size="11.5" text-anchor="middle" font-weight="bold" fill="#fff">GND</text>
<line x1="290" y1="525" x2="298" y2="525" stroke="#222222" stroke-width="3"/>
<rect x="298" y="516" width="30.799999999999997" height="18" rx="4" fill="#222222"/>
<text x="313.4" y="529.5" font-family="Helvetica, Arial, sans-serif" font-size="11.5" text-anchor="middle" font-weight="bold" fill="#fff">GND</text>
<path d="M 290 150 L 450 150 L 450 320 L 480 320" fill="none" stroke="#ffffff" stroke-width="8" stroke-linejoin="round"/>
<path d="M 290 150 L 450 150 L 450 320 L 480 320" fill="none" stroke="#16a34a" stroke-width="3" stroke-linejoin="round" stroke-linecap="round"/>
<path d="M 290 250 L 430 250 L 430 352 L 480 352" fill="none" stroke="#ffffff" stroke-width="8" stroke-linejoin="round"/>
<path d="M 290 250 L 430 250 L 430 352 L 480 352" fill="none" stroke="#0ea5e9" stroke-width="3" stroke-linejoin="round" stroke-linecap="round"/>
<path d="M 290 350 L 410 350 L 410 384 L 480 384" fill="none" stroke="#ffffff" stroke-width="8" stroke-linejoin="round"/>
<path d="M 290 350 L 410 350 L 410 384 L 480 384" fill="none" stroke="#ca8a04" stroke-width="3" stroke-linejoin="round" stroke-linecap="round"/>
<path d="M 290 450 L 340 450 L 340 416 L 480 416" fill="none" stroke="#ffffff" stroke-width="8" stroke-linejoin="round"/>
<path d="M 290 450 L 340 450 L 340 416 L 480 416" fill="none" stroke="#0891b2" stroke-width="3" stroke-linejoin="round" stroke-linecap="round"/>
<path d="M 290 475 L 360 475 L 360 448 L 480 448" fill="none" stroke="#ffffff" stroke-width="8" stroke-linejoin="round"/>
<path d="M 290 475 L 360 475 L 360 448 L 480 448" fill="none" stroke="#4f46e5" stroke-width="3" stroke-linejoin="round" stroke-linecap="round"/>
<path d="M 290 500 L 380 500 L 380 480 L 480 480" fill="none" stroke="#ffffff" stroke-width="8" stroke-linejoin="round"/>
<path d="M 290 500 L 380 500 L 380 480 L 480 480" fill="none" stroke="#9333ea" stroke-width="3" stroke-linejoin="round" stroke-linecap="round"/>
<line x1="480" y1="576" x2="472" y2="576" stroke="#222222" stroke-width="3"/>
<rect x="441.2" y="567" width="30.799999999999997" height="18" rx="4" fill="#222222"/>
<text x="456.59999999999997" y="580.5" font-family="Helvetica, Arial, sans-serif" font-size="11.5" text-anchor="middle" font-weight="bold" fill="#fff">GND</text>
<line x1="480" y1="608" x2="472" y2="608" stroke="#d62828" stroke-width="3"/>
<rect x="418.4" y="599" width="53.599999999999994" height="18" rx="4" fill="#d62828"/>
<text x="445.2" y="612.5" font-family="Helvetica, Arial, sans-serif" font-size="11.5" text-anchor="middle" font-weight="bold" fill="#fff">VIN 5V</text>
<rect x="950" y="110" width="240" height="200" rx="6" fill="#fdeceb" stroke="#333" stroke-width="1.5"/>
<text x="962" y="132" font-family="Helvetica, Arial, sans-serif" font-size="14" text-anchor="start" font-weight="bold" fill="#222">LED matrix 32×8</text>
<text x="962" y="149" font-family="Helvetica, Arial, sans-serif" font-size="11.5" text-anchor="start" font-weight="normal" fill="#555">MAX7219 × 4 (FC-16)</text>
<rect x="1012" y="160" width="26" height="26" rx="2" fill="#2b1210" stroke="#111" stroke-width="1"/>
<circle cx="1018" cy="166" r="2.2" fill="#ff3b2f"/>
<circle cx="1025" cy="166" r="2.2" fill="#ff3b2f"/>
<circle cx="1032" cy="166" r="2.2" fill="#ff3b2f"/>
<circle cx="1018" cy="173" r="2.2" fill="#ff3b2f"/>
<circle cx="1025" cy="173" r="2.2" fill="#ff3b2f"/>
<circle cx="1032" cy="173" r="2.2" fill="#ff3b2f"/>
<circle cx="1018" cy="180" r="2.2" fill="#ff3b2f"/>
<circle cx="1025" cy="180" r="2.2" fill="#ff3b2f"/>
<circle cx="1032" cy="180" r="2.2" fill="#ff3b2f"/>
<rect x="1042" y="160" width="26" height="26" rx="2" fill="#2b1210" stroke="#111" stroke-width="1"/>
<circle cx="1048" cy="166" r="2.2" fill="#ff3b2f"/>
<circle cx="1055" cy="166" r="2.2" fill="#ff3b2f"/>
<circle cx="1062" cy="166" r="2.2" fill="#ff3b2f"/>
<circle cx="1048" cy="173" r="2.2" fill="#ff3b2f"/>
<circle cx="1055" cy="173" r="2.2" fill="#ff3b2f"/>
<circle cx="1062" cy="173" r="2.2" fill="#ff3b2f"/>
<circle cx="1048" cy="180" r="2.2" fill="#ff3b2f"/>
<circle cx="1055" cy="180" r="2.2" fill="#ff3b2f"/>
<circle cx="1062" cy="180" r="2.2" fill="#ff3b2f"/>
<rect x="1072" y="160" width="26" height="26" rx="2" fill="#2b1210" stroke="#111" stroke-width="1"/>
<circle cx="1078" cy="166" r="2.2" fill="#ff3b2f"/>
<circle cx="1085" cy="166" r="2.2" fill="#ff3b2f"/>
<circle cx="1092" cy="166" r="2.2" fill="#ff3b2f"/>
<circle cx="1078" cy="173" r="2.2" fill="#ff3b2f"/>
<circle cx="1085" cy="173" r="2.2" fill="#ff3b2f"/>
<circle cx="1092" cy="173" r="2.2" fill="#ff3b2f"/>
<circle cx="1078" cy="180" r="2.2" fill="#ff3b2f"/>
<circle cx="1085" cy="180" r="2.2" fill="#ff3b2f"/>
<circle cx="1092" cy="180" r="2.2" fill="#ff3b2f"/>
<rect x="1102" y="160" width="26" height="26" rx="2" fill="#2b1210" stroke="#111" stroke-width="1"/>
<circle cx="1108" cy="166" r="2.2" fill="#ff3b2f"/>
<circle cx="1115" cy="166" r="2.2" fill="#ff3b2f"/>
<circle cx="1122" cy="166" r="2.2" fill="#ff3b2f"/>
<circle cx="1108" cy="173" r="2.2" fill="#ff3b2f"/>
<circle cx="1115" cy="173" r="2.2" fill="#ff3b2f"/>
<circle cx="1122" cy="173" r="2.2" fill="#ff3b2f"/>
<circle cx="1108" cy="180" r="2.2" fill="#ff3b2f"/>
<circle cx="1115" cy="180" r="2.2" fill="#ff3b2f"/>
<circle cx="1122" cy="180" r="2.2" fill="#ff3b2f"/>
<circle cx="950" cy="205" r="4.5" fill="#c9a227" stroke="#555" stroke-width="1"/>
<text x="960" y="209" font-family="Helvetica, Arial, sans-serif" font-size="11.5" text-anchor="start" font-weight="bold" fill="#222">VCC</text>
<circle cx="950" cy="228" r="4.5" fill="#c9a227" stroke="#555" stroke-width="1"/>
<text x="960" y="232" font-family="Helvetica, Arial, sans-serif" font-size="11.5" text-anchor="start" font-weight="bold" fill="#222">GND</text>
<circle cx="950" cy="251" r="4.5" fill="#c9a227" stroke="#555" stroke-width="1"/>
<text x="960" y="255" font-family="Helvetica, Arial, sans-serif" font-size="11.5" text-anchor="start" font-weight="bold" fill="#222">DIN</text>
<circle cx="950" cy="274" r="4.5" fill="#c9a227" stroke="#555" stroke-width="1"/>
<text x="960" y="278" font-family="Helvetica, Arial, sans-serif" font-size="11.5" text-anchor="start" font-weight="bold" fill="#222">CS</text>
<circle cx="950" cy="297" r="4.5" fill="#c9a227" stroke="#555" stroke-width="1"/>
<text x="960" y="301" font-family="Helvetica, Arial, sans-serif" font-size="11.5" text-anchor="start" font-weight="bold" fill="#222">CLK</text>
<line x1="950" y1="205" x2="942" y2="205" stroke="#d62828" stroke-width="3"/>
<rect x="888.4" y="196" width="53.599999999999994" height="18" rx="4" fill="#d62828"/>
<text x="915.1999999999999" y="209.5" font-family="Helvetica, Arial, sans-serif" font-size="11.5" text-anchor="middle" font-weight="bold" fill="#fff">VIN 5V</text>
<line x1="950" y1="228" x2="942" y2="228" stroke="#222222" stroke-width="3"/>
<rect x="911.2" y="219" width="30.799999999999997" height="18" rx="4" fill="#222222"/>
<text x="926.6" y="232.5" font-family="Helvetica, Arial, sans-serif" font-size="11.5" text-anchor="middle" font-weight="bold" fill="#fff">GND</text>
<rect x="950" y="400" width="240" height="90" rx="6" fill="#fbeaf3" stroke="#333" stroke-width="1.5"/>
<text x="1020" y="422" font-family="Helvetica, Arial, sans-serif" font-size="14" text-anchor="start" font-weight="bold" fill="#222">Passive buzzer</text>
<text x="1020" y="439" font-family="Helvetica, Arial, sans-serif" font-size="11.5" text-anchor="start" font-weight="normal" fill="#555">LEDC PWM tones</text>
<circle cx="1150" cy="445" r="22" fill="#222"/><circle cx="1150" cy="445" r="6" fill="#555"/>
<circle cx="950" cy="425" r="4.5" fill="#c9a227" stroke="#555" stroke-width="1"/>
<text x="960" y="429" font-family="Helvetica, Arial, sans-serif" font-size="11.5" text-anchor="start" font-weight="bold" fill="#222">S</text>
<circle cx="950" cy="448" r="4.5" fill="#c9a227" stroke="#555" stroke-width="1"/>
<text x="960" y="452" font-family="Helvetica, Arial, sans-serif" font-size="11.5" text-anchor="start" font-weight="bold" fill="#222">VCC</text>
<circle cx="950" cy="471" r="4.5" fill="#c9a227" stroke="#555" stroke-width="1"/>
<text x="960" y="475" font-family="Helvetica, Arial, sans-serif" font-size="11.5" text-anchor="start" font-weight="bold" fill="#222">GND</text>
<line x1="950" y1="448" x2="942" y2="448" stroke="#e67700" stroke-width="3"/>
<rect x="911.2" y="439" width="30.799999999999997" height="18" rx="4" fill="#e67700"/>
<text x="926.6" y="452.5" font-family="Helvetica, Arial, sans-serif" font-size="11.5" text-anchor="middle" font-weight="bold" fill="#fff">3V3</text>
<line x1="950" y1="471" x2="942" y2="471" stroke="#222222" stroke-width="3"/>
<rect x="911.2" y="462" width="30.799999999999997" height="18" rx="4" fill="#222222"/>
<text x="926.6" y="475.5" font-family="Helvetica, Arial, sans-serif" font-size="11.5" text-anchor="middle" font-weight="bold" fill="#fff">GND</text>
<path d="M 740 160 L 870 160 L 870 251 L 950 251" fill="none" stroke="#ffffff" stroke-width="8" stroke-linejoin="round"/>
<path d="M 740 160 L 870 160 L 870 251 L 950 251" fill="none" stroke="#2563eb" stroke-width="3" stroke-linejoin="round" stroke-linecap="round"/>
<path d="M 740 352 L 790 352 L 790 297 L 950 297" fill="none" stroke="#ffffff" stroke-width="8" stroke-linejoin="round"/>
<path d="M 740 352 L 790 352 L 790 297 L 950 297" fill="none" stroke="#7c3aed" stroke-width="3" stroke-linejoin="round" stroke-linecap="round"/>
<path d="M 740 384 L 830 384 L 830 274 L 950 274" fill="none" stroke="#ffffff" stroke-width="8" stroke-linejoin="round"/>
<path d="M 740 384 L 830 384 L 830 274 L 950 274" fill="none" stroke="#0d9488" stroke-width="3" stroke-linejoin="round" stroke-linecap="round"/>
<path d="M 740 320 L 900 320 L 900 425 L 950 425" fill="none" stroke="#ffffff" stroke-width="8" stroke-linejoin="round"/>
<path d="M 740 320 L 900 320 L 900 425 L 950 425" fill="none" stroke="#db2777" stroke-width="3" stroke-linejoin="round" stroke-linecap="round"/>
<line x1="740" y1="576" x2="748" y2="576" stroke="#222222" stroke-width="3"/>
<rect x="748" y="567" width="30.799999999999997" height="18" rx="4" fill="#222222"/>
<text x="763.4" y="580.5" font-family="Helvetica, Arial, sans-serif" font-size="11.5" text-anchor="middle" font-weight="bold" fill="#fff">GND</text>
<line x1="740" y1="608" x2="748" y2="608" stroke="#e67700" stroke-width="3"/>
<rect x="748" y="599" width="30.799999999999997" height="18" rx="4" fill="#e67700"/>
<text x="763.4" y="612.5" font-family="Helvetica, Arial, sans-serif" font-size="11.5" text-anchor="middle" font-weight="bold" fill="#fff">3V3</text>
<rect x="50" y="712" width="1140" height="72" rx="8" fill="#f6f7f9" stroke="#d5d9df" stroke-width="1"/>
<line x1="70" y1="734" x2="78" y2="734" stroke="#d62828" stroke-width="3"/>
<rect x="78" y="725" width="53.599999999999994" height="18" rx="4" fill="#d62828"/>
<text x="104.8" y="738.5" font-family="Helvetica, Arial, sans-serif" font-size="11.5" text-anchor="middle" font-weight="bold" fill="#fff">VIN 5V</text>
<text x="140" y="738" font-family="Helvetica, Arial, sans-serif" font-size="12" text-anchor="start" font-weight="normal" fill="#222">ESP32 VIN → display only (≈4.5–4.8 V from USB)</text>
<line x1="500" y1="734" x2="508" y2="734" stroke="#e67700" stroke-width="3"/>
<rect x="508" y="725" width="30.799999999999997" height="18" rx="4" fill="#e67700"/>
<text x="523.4" y="738.5" font-family="Helvetica, Arial, sans-serif" font-size="11.5" text-anchor="middle" font-weight="bold" fill="#fff">3V3</text>
<text x="548" y="738" font-family="Helvetica, Arial, sans-serif" font-size="12" text-anchor="start" font-weight="normal" fill="#222">ESP32 3V3 → RTC, button, touch pads, buzzer</text>
<line x1="70" y1="762" x2="78" y2="762" stroke="#222222" stroke-width="3"/>
<rect x="78" y="753" width="30.799999999999997" height="18" rx="4" fill="#222222"/>
<text x="93.4" y="766.5" font-family="Helvetica, Arial, sans-serif" font-size="11.5" text-anchor="middle" font-weight="bold" fill="#fff">GND</text>
<text x="120" y="766" font-family="Helvetica, Arial, sans-serif" font-size="12" text-anchor="start" font-weight="normal" fill="#222">All grounds tied together</text>
<text x="500" y="766" font-family="Helvetica, Arial, sans-serif" font-size="12" text-anchor="start" font-weight="normal" fill="#555">Same label = same wire. Pin order on your modules may differ — wire by name.</text>
<circle cx="960" cy="734" r="4.5" fill="#c9a227" stroke="#555" stroke-width="1"/>
<text x="972" y="738" font-family="Helvetica, Arial, sans-serif" font-size="12" text-anchor="start" font-weight="normal" fill="#222">used pin</text>
<circle cx="1060" cy="734" r="4.5" fill="#bbb" stroke="#555" stroke-width="1"/>
<text x="1072" y="738" font-family="Helvetica, Arial, sans-serif" font-size="12" text-anchor="start" font-weight="normal" fill="#222">unused</text>
</svg>